<svg id="Layer_1" data-name="Layer 1" xmlns="http://www.w3.org/2000/svg" viewBox="0 0 2640 525" width="496px" height="100px"><defs><style>.cls-1{fill:#3cae49;}.cls-2{font-size:200px;fill:#009345;font-family:OpenSans-Bold, Open Sans;font-weight:700;}.cls-3{fill:#fff;}</style></defs><title>greenhouse-logo-ua</title><path class="cls-1" d="M256,90a247,247,0,0,0-97,19,17,17,0,1,0,13,31,212,212,0,0,1,83-17c118,0,214,96,214,214V552H296v-2H266a6,6,0,0,1-6-1v3H76V388a17,17,0,0,0-34,0V586H504V338C504,201,393,90,256,90Z" transform="translate(-42 -90)"/><text class="cls-2" transform="translate(613 214)">ФАБРИКА ТЕПЛИЦЬ<tspan x="0" y="252">ГРІНХАУС</tspan></text><rect class="cls-3" x="213" y="445" width="52" height="17"/></svg>