<?xml version="1.0" encoding="UTF-8"?> <svg xmlns="http://www.w3.org/2000/svg" xmlns:xlink="http://www.w3.org/1999/xlink" version="1.1" id="Layer_1" x="0px" y="0px" viewBox="0 0 2640 525" width="383px" height="80px" style="enable-background:new 0 0 2640 525;" xml:space="preserve"> <style type="text/css"> .st0{fill:#009345;} .st1{font-family:'Open Sans', 'Arial', sans-serif;} .st2{font-size:200px;font-weight:700;} .st4{fill:#B4B3B3;} .st5{fill:#FFFFFF;} </style> <title>Фабрика Теплиц Гринхаус Киев</title> <path class="st0" d="M214,0c-33.3-0.3-66.3,6.2-97,19c-9.1,2.3-14.6,11.5-12.3,20.6c2.3,9.1,11.5,14.6,20.6,12.3 c1.7-0.4,3.2-1.1,4.7-2c26.2-11.2,54.5-17,83-17c118,0,214,96,214,214v215H254v-2h-30c-2,0.8-4.3,0.4-6-1v3H34V298 c0-9.4-7.6-17-17-17s-17,7.6-17,17v198h462V248C462,111,351,0,214,0z"></path> <text transform="matrix(1 0 0 1 613 214)" class="st0 st1 st2">ФАБРИКА ТЕПЛИЦ</text> <text transform="matrix(1 0 0 1 614 466)" class="st3"><tspan x="0" y="0" class="st0 st1 st2">ГРИНХАУС </tspan><tspan x="1136.8" y="0" class="st4 st1 st2">КИЕВ</tspan></text> <rect x="213" y="445" class="st5" width="52" height="17"></rect> <path id="XMLID_3709_" class="st0" d="M191.8,331.5c13.6,20.8,21.7,75.4,10.7,113.5c9.4-3.5,19.1-6.8,28.9-9.9 c-0.5-6.7-0.7-13.8-0.5-20.7c0.8-20.3,8.5-38.8,11.6-45.3c22.6,0.9,82.2-0.7,118.2-38.3c45.1-47.1,36.1-132.8,36.1-132.8 s-82.2-9.4-127.3,37.7c-21.8,22.7-30.9,54.4-34.6,81.1c51.4-72,107.2-78.1,107.2-78.1c-70.7,33.3-109.4,116.5-109.4,116.5 c-3.4,6.7-6.3,13.5-8.9,20.3c-3.1-17-8.2-34-16.6-51c0,0-20.3-62.6-69.5-110.7c0,0,36.9,12.8,73.6,66.5c0-26.7-4.6-58.7-22.6-84.1 c-37.9-53.5-120.5-57-120.5-57S47.1,222.4,85,275.9C113.4,316,166.8,328,191.8,331.5z"></path> </svg> 