<svg id="Layer_1" data-name="Layer 1" xmlns="http://www.w3.org/2000/svg" viewBox="0 0 462 496"><defs><style>.cls-1{fill:#666;}.cls-2{fill:#fff;}</style></defs><title>logo-symbol-gray</title><path class="cls-1" d="M214,0a247,247,0,0,0-97,19,17,17,0,1,0,8,33l5-2a212,212,0,0,1,83-17c118,0,214,96,214,214V462H254v-2H224a6,6,0,0,1-6-1v3H34V298a17,17,0,0,0-34,0V496H462V248C462,111,351,0,214,0Z" transform="translate(0 0)"/><rect class="cls-2" x="213" y="445" width="52" height="17"/><path id="_Path_" data-name="&lt;Path&gt;" class="cls-1" d="M192,332c14,21,22,75,11,113l29-10a181,181,0,0,1,0-21c1-20,8-39,12-45,23,1,82-1,118-38s36-133,36-133-82-9-127,38c-22,23-31,54-35,81,51-72,107-78,107-78-71,33-109,116-109,116l-9,20a191,191,0,0,0-17-51s-20-63-70-111c0,0,37,13,74,66,0-27-5-59-23-84-38-54-120-57-120-57S47,222,85,276C113,316,167,328,192,332Z" transform="translate(0 0)"/></svg>